<?xml version="1.0" encoding="UTF-8" standalone="no"?>
<!-- Created with Inkscape (http://www.inkscape.org/) -->

<svg
   width="1000.0001"
   height="500"
   viewBox="0 0 264.58335 132.29167"
   version="1.1"
   id="svg1"
   inkscape:export-filename="logo.svg"
   inkscape:export-xdpi="96"
   inkscape:export-ydpi="96"
   xmlns:inkscape="http://www.inkscape.org/namespaces/inkscape"
   xmlns:sodipodi="http://sodipodi.sourceforge.net/DTD/sodipodi-0.dtd"
   xmlns="http://www.w3.org/2000/svg"
   xmlns:svg="http://www.w3.org/2000/svg">
  <sodipodi:namedview
     id="namedview1"
     pagecolor="#ffffff"
     bordercolor="#000000"
     borderopacity="0.25"
     inkscape:showpageshadow="2"
     inkscape:pageopacity="0.0"
     inkscape:pagecheckerboard="0"
     inkscape:deskcolor="#d1d1d1"
     inkscape:document-units="mm" />
  <defs
     id="defs1" />
  <g
     inkscape:label="Réteg 1"
     inkscape:groupmode="layer"
     id="layer1">
    <path
       id="path1"
       style="fill:#000000;fill-opacity:1;stroke:none;stroke-width:0.793999;stroke-linecap:round;stroke-dasharray:none;stroke-opacity:1"
       d="M 46.455046,41.020235 A 26.645767,26.645767 0 0 0 19.809127,67.666154 26.645767,26.645767 0 0 0 46.455046,94.312073 26.645767,26.645767 0 0 0 70.339893,79.381201 c -1.239937,-0.866341 -2.262296,-1.97504 -3.044776,-3.349666 -0.950296,-1.715812 -1.425236,-3.735083 -1.425236,-6.058028 0,-2.322945 0.47494,-4.328823 1.425236,-6.018238 0.950297,-1.715811 2.270551,-3.036066 3.959965,-3.959965 0.201103,-0.108286 0.417292,-0.188626 0.625285,-0.28422 A 26.645767,26.645767 0 0 0 46.455046,41.020235 Z m 25.425321,18.690849 a 26.645767,26.645767 0 0 1 1.220081,7.95507 26.645767,26.645767 0 0 1 -2.760555,11.715047 c 0.307755,0.215028 0.618527,0.426584 0.954463,0.610299 1.715813,0.923899 3.669148,1.385445 5.860108,1.385445 1.8214,0 3.484724,-0.34307 4.989359,-1.029395 1.504635,-0.686324 2.745045,-1.623327 3.721737,-2.811197 1.00309,-1.214267 1.676353,-2.587063 2.019515,-4.118095 h -8.275464 c -0.554339,1.161472 -1.478466,1.742529 -2.771924,1.742529 -0.923898,0 -1.689366,-0.290529 -2.2965,-0.871265 -0.580737,-0.607133 -0.910413,-1.517865 -0.989604,-2.732133 h 14.690059 c 0.07919,-0.607133 0.118856,-1.213944 0.118856,-1.821077 0,-2.270151 -0.475456,-4.236881 -1.425753,-5.899898 -0.950295,-1.689415 -2.270033,-2.982883 -3.959448,-3.880384 -1.689414,-0.897501 -3.629873,-1.346171 -5.820833,-1.346171 -1.95747,0 -3.707494,0.381207 -5.274097,1.101225 z m 145.244883,-12.267468 -9.89862,4.474145 v 5.266345 l 9.89862,-3.880383 z m 9.58236,4.355806 v 29.300537 h 7.76077 V 51.799422 Z M 30.114958,53.184867 h 9.38444 l 7.008358,18.134811 6.849711,-18.134811 h 9.344649 V 81.099959 H 54.941349 V 65.697282 l -5.265828,15.402677 h -6.494177 l -5.30562,-15.521533 v 15.521533 h -7.760766 z m 114.194062,0.316777 v 5.385201 h -2.73213 v 6.45387 h 2.73213 v 7.325651 c 0,5.622583 2.8378,8.433593 8.51318,8.433593 h 3.36568 v -6.612516 h -2.25722 c -0.65993,0 -1.13487,-0.13187 -1.42524,-0.395841 -0.26397,-0.263972 -0.39636,-0.699764 -0.39636,-1.306897 v -7.44399 h 4.03903 v -6.45387 h -4.03903 v -5.385201 z m -15.6006,5.108215 c -2.21735,0 -4.18408,0.461547 -5.8999,1.385445 -1.68941,0.923899 -3.00915,2.244154 -3.95944,3.959965 -0.9503,1.689415 -1.42576,3.695293 -1.42576,6.018238 0,2.322945 0.47546,4.342216 1.42576,6.058028 0.97669,1.715812 2.30982,3.036066 3.99924,3.959965 1.71581,0.923899 3.66915,1.385445 5.8601,1.385445 1.82141,0 3.48421,-0.34307 4.98885,-1.029395 1.50463,-0.686324 2.74556,-1.623327 3.72225,-2.811197 1.00309,-1.214267 1.67584,-2.587063 2.019,-4.118095 h -8.27547 c -0.55434,1.161472 -1.47794,1.742529 -2.7714,1.742529 -0.9239,0 -1.68937,-0.290529 -2.2965,-0.871265 -0.58074,-0.607133 -0.91094,-1.517865 -0.99012,-2.732133 h 14.69005 c 0.0792,-0.607133 0.11886,-1.213944 0.11886,-1.821077 0,-2.270151 -0.47545,-4.236881 -1.42575,-5.899898 -0.95029,-1.689415 -2.27003,-2.982883 -3.95945,-3.880384 -1.68941,-0.897501 -3.62935,-1.346171 -5.82032,-1.346171 z m 39.95209,0 c -1.95339,0 -3.62959,0.316799 -5.02864,0.95033 -1.37265,0.63353 -2.41577,1.491205 -3.12849,2.573486 -0.71272,1.055884 -1.06867,2.243752 -1.06867,3.563607 0,1.531032 0.38273,2.745171 1.14825,3.642672 0.79192,0.897501 1.71552,1.544493 2.77141,1.94045 1.05588,0.395956 2.37562,0.75242 3.95945,1.069185 1.39904,0.316766 2.4025,0.606777 3.00963,0.870748 0.60714,0.263971 0.91054,0.673492 0.91054,1.227832 0,0.422354 -0.18493,0.765423 -0.55449,1.029394 -0.36956,0.263972 -0.87076,0.395842 -1.5043,0.395842 -0.8183,0 -1.50496,-0.197805 -2.0593,-0.593762 -0.55434,-0.395957 -0.88401,-0.950226 -0.98961,-1.662948 h -7.52357 c 0.10559,1.478238 0.60731,2.810853 1.50482,3.998722 0.9239,1.161473 2.16483,2.0856 3.72225,2.771924 1.58384,0.659928 3.37851,0.989604 5.38469,0.989604 1.87419,0 3.49785,-0.290012 4.8705,-0.870748 1.39905,-0.607134 2.46792,-1.42566 3.20704,-2.455147 0.76552,-1.029487 1.14825,-2.191084 1.14825,-3.484542 0,-1.610224 -0.409,-2.876903 -1.22731,-3.800802 -0.79192,-0.950295 -1.72892,-1.636952 -2.8112,-2.059305 -1.05589,-0.422354 -2.38902,-0.805088 -3.99924,-1.148251 -1.34625,-0.290368 -2.32292,-0.567502 -2.93005,-0.831474 -0.60714,-0.290368 -0.91054,-0.699373 -0.91054,-1.227315 0,-0.422353 0.15814,-0.752547 0.4749,-0.99012 0.34316,-0.237574 0.8315,-0.356051 1.46503,-0.356051 0.81831,0 1.4653,0.197806 1.94045,0.593762 0.50154,0.36956 0.81783,0.910952 0.94981,1.623674 h 7.00888 c -0.26398,-2.322946 -1.22777,-4.19747 -2.89078,-5.622913 -1.66302,-1.425444 -3.94603,-2.137854 -6.84971,-2.137854 z m 43.67382,0 c -2.21736,0 -4.18409,0.461547 -5.8999,1.385445 -1.68941,0.923899 -3.00915,2.244154 -3.95945,3.959965 -0.95029,1.689415 -1.42524,3.695293 -1.42524,6.018238 0,2.322945 0.47495,4.342216 1.42524,6.058028 0.9767,1.715812 2.30983,3.036066 3.99924,3.959965 1.71581,0.923899 3.66915,1.385445 5.86011,1.385445 1.8214,0 3.48472,-0.34307 4.98936,-1.029395 1.50463,-0.686324 2.74504,-1.623327 3.72173,-2.811197 1.00309,-1.214267 1.67635,-2.587063 2.01952,-4.118095 h -8.27547 c -0.55434,1.161472 -1.47846,1.742529 -2.77192,1.742529 -0.9239,0 -1.68937,-0.290529 -2.2965,-0.871265 -0.58074,-0.607133 -0.91093,-1.517865 -0.99012,-2.732133 h 14.69006 c 0.0792,-0.607133 0.11885,-1.213944 0.11885,-1.821077 0,-2.270151 -0.47493,-4.236881 -1.42523,-5.899898 -0.95029,-1.689415 -2.27003,-2.982883 -3.95945,-3.880384 -1.68941,-0.897501 -3.62987,-1.346171 -5.82083,-1.346171 z m -106.27465,0.07906 c -1.50464,0 -2.83777,0.316799 -3.99924,0.95033 -1.16148,0.607133 -2.0856,1.412266 -2.771927,2.415356 V 58.88684 h -7.760766 v 22.213114 h 7.760766 v -11.91813 c 0,-1.267061 0.330193,-2.257123 0.990117,-2.969845 0.65993,-0.739119 1.57066,-1.108459 2.73214,-1.108459 1.10868,0 1.99262,0.36934 2.65255,1.108459 0.65992,0.712722 0.99012,1.702784 0.99012,2.969845 v 11.918135 h 7.76076 v -12.94753 c 0,-2.903682 -0.75207,-5.200604 -2.2567,-6.890019 -1.50464,-1.715812 -3.5373,-2.573486 -6.09782,-2.573486 z m 75.07345,0.197921 v 6.45387 h 8.75037 l -8.82995,9.622151 v 6.137093 h 18.01647 V 74.64609 h -9.46351 l 9.14673,-9.622152 V 58.886845 Z M 77.11519,64.746952 c 0.950295,0 1.742035,0.277135 2.375565,0.831474 0.633531,0.527942 0.95033,1.26714 0.95033,2.217436 h -6.850228 c 0.18478,-1.003091 0.580908,-1.755165 1.188041,-2.25671 0.607134,-0.527942 1.385996,-0.7922 2.336292,-0.7922 z m 51.55344,0 c 0.95029,0 1.74203,0.277135 2.37557,0.831474 0.63353,0.527942 0.95033,1.26714 0.95033,2.217436 h -6.84971 c 0.18478,-1.003091 0.58039,-1.755165 1.18752,-2.25671 0.60713,-0.527942 1.38599,-0.7922 2.33629,-0.7922 z m 83.62591,0 c 0.95029,0 1.74254,0.277135 2.37608,0.831474 0.63353,0.527942 0.95033,1.26714 0.95033,2.217436 h -6.85023 c 0.18478,-1.003091 0.58091,-1.755165 1.18804,-2.25671 0.60713,-0.527942 1.38548,-0.7922 2.33578,-0.7922 z" />
  </g>
</svg>
